<mxfile host="app.diagrams.net" modified="2024-03-02T21:21:13.764Z" agent="Mozilla/5.0 (Windows NT 10.0; Win64; x64) AppleWebKit/537.36 (KHTML, like Gecko) Chrome/122.0.0.0 Safari/537.36" etag="3OjvkYUmlOY6G3mOvE-R" version="23.1.8" type="github">
  <diagram name="Página-1" id="zqDcufJNqj2IekqlWoUW">
    <mxGraphModel dx="1363" dy="931" grid="1" gridSize="10" guides="1" tooltips="1" connect="1" arrows="1" fold="1" page="1" pageScale="1" pageWidth="1169" pageHeight="827" math="0" shadow="0">
      <root>
        <mxCell id="0" />
        <mxCell id="1" parent="0" />
        <mxCell id="k65Ih3bsVJZd8CG2GF2q-1" value="Professor&lt;span style=&quot;white-space: pre;&quot;&gt;&#x9;&lt;/span&gt;" style="rounded=0;whiteSpace=wrap;html=1;" vertex="1" parent="1">
          <mxGeometry x="590" y="380" width="80" height="40" as="geometry" />
        </mxCell>
        <mxCell id="k65Ih3bsVJZd8CG2GF2q-2" value="Turma" style="rounded=0;whiteSpace=wrap;html=1;" vertex="1" parent="1">
          <mxGeometry x="137.5" y="380" width="80" height="40" as="geometry" />
        </mxCell>
        <mxCell id="k65Ih3bsVJZd8CG2GF2q-3" value="tem" style="rhombus;whiteSpace=wrap;html=1;" vertex="1" parent="1">
          <mxGeometry x="440" y="375" width="70" height="50" as="geometry" />
        </mxCell>
        <mxCell id="k65Ih3bsVJZd8CG2GF2q-4" value="" style="endArrow=none;html=1;rounded=0;exitX=1;exitY=0.5;exitDx=0;exitDy=0;entryX=0;entryY=0.5;entryDx=0;entryDy=0;" edge="1" parent="1" source="k65Ih3bsVJZd8CG2GF2q-2" target="k65Ih3bsVJZd8CG2GF2q-3">
          <mxGeometry width="50" height="50" relative="1" as="geometry">
            <mxPoint x="460" y="540" as="sourcePoint" />
            <mxPoint x="510" y="490" as="targetPoint" />
          </mxGeometry>
        </mxCell>
        <mxCell id="k65Ih3bsVJZd8CG2GF2q-5" value="" style="endArrow=none;html=1;rounded=0;exitX=1;exitY=0.5;exitDx=0;exitDy=0;entryX=0;entryY=0.5;entryDx=0;entryDy=0;" edge="1" parent="1" source="k65Ih3bsVJZd8CG2GF2q-3" target="k65Ih3bsVJZd8CG2GF2q-1">
          <mxGeometry width="50" height="50" relative="1" as="geometry">
            <mxPoint x="460" y="540" as="sourcePoint" />
            <mxPoint x="510" y="490" as="targetPoint" />
          </mxGeometry>
        </mxCell>
        <mxCell id="k65Ih3bsVJZd8CG2GF2q-6" value="N" style="text;html=1;align=center;verticalAlign=middle;whiteSpace=wrap;rounded=0;" vertex="1" parent="1">
          <mxGeometry x="310" y="370" width="60" height="30" as="geometry" />
        </mxCell>
        <mxCell id="k65Ih3bsVJZd8CG2GF2q-7" value="M" style="text;html=1;align=center;verticalAlign=middle;whiteSpace=wrap;rounded=0;" vertex="1" parent="1">
          <mxGeometry x="520" y="370" width="60" height="30" as="geometry" />
        </mxCell>
        <mxCell id="k65Ih3bsVJZd8CG2GF2q-8" value="" style="endArrow=none;html=1;rounded=0;exitX=0.812;exitY=0.696;exitDx=0;exitDy=0;exitPerimeter=0;entryX=0;entryY=0.75;entryDx=0;entryDy=0;" edge="1" parent="1" source="k65Ih3bsVJZd8CG2GF2q-3" target="k65Ih3bsVJZd8CG2GF2q-1">
          <mxGeometry width="50" height="50" relative="1" as="geometry">
            <mxPoint x="530" y="470" as="sourcePoint" />
            <mxPoint x="580" y="420" as="targetPoint" />
          </mxGeometry>
        </mxCell>
        <mxCell id="k65Ih3bsVJZd8CG2GF2q-10" value="Atividade" style="rounded=0;whiteSpace=wrap;html=1;" vertex="1" parent="1">
          <mxGeometry x="137.5" y="620" width="80" height="40" as="geometry" />
        </mxCell>
        <mxCell id="k65Ih3bsVJZd8CG2GF2q-12" value="&lt;font style=&quot;font-size: 11px;&quot;&gt;tem &lt;br&gt;disponível&lt;/font&gt;" style="rhombus;whiteSpace=wrap;html=1;" vertex="1" parent="1">
          <mxGeometry x="135" y="490" width="85" height="60" as="geometry" />
        </mxCell>
        <mxCell id="k65Ih3bsVJZd8CG2GF2q-13" value="" style="endArrow=none;html=1;rounded=0;entryX=0.5;entryY=1;entryDx=0;entryDy=0;exitX=0.5;exitY=0;exitDx=0;exitDy=0;" edge="1" parent="1" source="k65Ih3bsVJZd8CG2GF2q-12" target="k65Ih3bsVJZd8CG2GF2q-2">
          <mxGeometry width="50" height="50" relative="1" as="geometry">
            <mxPoint x="365" y="500" as="sourcePoint" />
            <mxPoint x="415" y="450" as="targetPoint" />
          </mxGeometry>
        </mxCell>
        <mxCell id="k65Ih3bsVJZd8CG2GF2q-14" value="" style="endArrow=none;html=1;rounded=0;entryX=0.5;entryY=1;entryDx=0;entryDy=0;exitX=0.5;exitY=0;exitDx=0;exitDy=0;" edge="1" parent="1" source="k65Ih3bsVJZd8CG2GF2q-10" target="k65Ih3bsVJZd8CG2GF2q-12">
          <mxGeometry width="50" height="50" relative="1" as="geometry">
            <mxPoint x="345" y="590" as="sourcePoint" />
            <mxPoint x="395" y="540" as="targetPoint" />
          </mxGeometry>
        </mxCell>
        <mxCell id="k65Ih3bsVJZd8CG2GF2q-15" value="Encarregado&lt;br&gt;de Educação" style="rounded=0;whiteSpace=wrap;html=1;" vertex="1" parent="1">
          <mxGeometry x="590" y="620" width="80" height="40" as="geometry" />
        </mxCell>
        <mxCell id="k65Ih3bsVJZd8CG2GF2q-30" value="N" style="text;html=1;align=center;verticalAlign=middle;whiteSpace=wrap;rounded=0;" vertex="1" parent="1">
          <mxGeometry x="130" y="440" width="60" height="30" as="geometry" />
        </mxCell>
        <mxCell id="k65Ih3bsVJZd8CG2GF2q-38" value="M" style="text;html=1;align=center;verticalAlign=middle;whiteSpace=wrap;rounded=0;" vertex="1" parent="1">
          <mxGeometry x="130" y="570" width="60" height="30" as="geometry" />
        </mxCell>
        <mxCell id="k65Ih3bsVJZd8CG2GF2q-52" value="1" style="text;html=1;align=center;verticalAlign=middle;whiteSpace=wrap;rounded=0;" vertex="1" parent="1">
          <mxGeometry x="250" y="425" width="60" height="30" as="geometry" />
        </mxCell>
        <mxCell id="k65Ih3bsVJZd8CG2GF2q-71" value="Aluno" style="rounded=0;whiteSpace=wrap;html=1;" vertex="1" parent="1">
          <mxGeometry x="370" y="620" width="80" height="40" as="geometry" />
        </mxCell>
        <mxCell id="k65Ih3bsVJZd8CG2GF2q-75" value="recebe" style="rhombus;whiteSpace=wrap;html=1;" vertex="1" parent="1">
          <mxGeometry x="250" y="610" width="85" height="60" as="geometry" />
        </mxCell>
        <mxCell id="k65Ih3bsVJZd8CG2GF2q-76" value="" style="endArrow=none;html=1;rounded=0;exitX=1;exitY=0.5;exitDx=0;exitDy=0;entryX=0;entryY=0.5;entryDx=0;entryDy=0;" edge="1" parent="1" source="k65Ih3bsVJZd8CG2GF2q-10" target="k65Ih3bsVJZd8CG2GF2q-75">
          <mxGeometry width="50" height="50" relative="1" as="geometry">
            <mxPoint x="240" y="560" as="sourcePoint" />
            <mxPoint x="450" y="455" as="targetPoint" />
          </mxGeometry>
        </mxCell>
        <mxCell id="k65Ih3bsVJZd8CG2GF2q-77" value="" style="endArrow=none;html=1;rounded=0;exitX=1;exitY=0.5;exitDx=0;exitDy=0;entryX=0;entryY=0.5;entryDx=0;entryDy=0;" edge="1" parent="1" source="k65Ih3bsVJZd8CG2GF2q-75" target="k65Ih3bsVJZd8CG2GF2q-71">
          <mxGeometry width="50" height="50" relative="1" as="geometry">
            <mxPoint x="450" y="450" as="sourcePoint" />
            <mxPoint x="500" y="400" as="targetPoint" />
          </mxGeometry>
        </mxCell>
        <mxCell id="k65Ih3bsVJZd8CG2GF2q-79" value="contém" style="rhombus;whiteSpace=wrap;html=1;" vertex="1" parent="1">
          <mxGeometry x="270" y="480" width="85" height="60" as="geometry" />
        </mxCell>
        <mxCell id="k65Ih3bsVJZd8CG2GF2q-80" value="" style="endArrow=none;html=1;rounded=0;exitX=0.947;exitY=1.008;exitDx=0;exitDy=0;exitPerimeter=0;entryX=0.338;entryY=0.163;entryDx=0;entryDy=0;entryPerimeter=0;" edge="1" parent="1" source="k65Ih3bsVJZd8CG2GF2q-2" target="k65Ih3bsVJZd8CG2GF2q-79">
          <mxGeometry width="50" height="50" relative="1" as="geometry">
            <mxPoint x="450" y="440" as="sourcePoint" />
            <mxPoint x="300" y="490" as="targetPoint" />
          </mxGeometry>
        </mxCell>
        <mxCell id="k65Ih3bsVJZd8CG2GF2q-81" value="" style="endArrow=none;html=1;rounded=0;exitX=1;exitY=1;exitDx=0;exitDy=0;entryX=0.84;entryY=-0.01;entryDx=0;entryDy=0;entryPerimeter=0;" edge="1" parent="1" source="k65Ih3bsVJZd8CG2GF2q-79" target="k65Ih3bsVJZd8CG2GF2q-71">
          <mxGeometry width="50" height="50" relative="1" as="geometry">
            <mxPoint x="343.5" y="540" as="sourcePoint" />
            <mxPoint x="430" y="610" as="targetPoint" />
          </mxGeometry>
        </mxCell>
        <mxCell id="k65Ih3bsVJZd8CG2GF2q-82" value="M" style="text;html=1;align=center;verticalAlign=middle;whiteSpace=wrap;rounded=0;" vertex="1" parent="1">
          <mxGeometry x="210" y="640" width="60" height="30" as="geometry" />
        </mxCell>
        <mxCell id="k65Ih3bsVJZd8CG2GF2q-84" value="N" style="text;html=1;align=center;verticalAlign=middle;whiteSpace=wrap;rounded=0;" vertex="1" parent="1">
          <mxGeometry x="320" y="640" width="60" height="30" as="geometry" />
        </mxCell>
        <mxCell id="k65Ih3bsVJZd8CG2GF2q-85" value="tem" style="rhombus;whiteSpace=wrap;html=1;" vertex="1" parent="1">
          <mxGeometry x="480" y="610" width="85" height="60" as="geometry" />
        </mxCell>
        <mxCell id="k65Ih3bsVJZd8CG2GF2q-86" value="" style="endArrow=none;html=1;rounded=0;exitX=1;exitY=0.5;exitDx=0;exitDy=0;entryX=0;entryY=0.5;entryDx=0;entryDy=0;" edge="1" parent="1" source="k65Ih3bsVJZd8CG2GF2q-71" target="k65Ih3bsVJZd8CG2GF2q-85">
          <mxGeometry width="50" height="50" relative="1" as="geometry">
            <mxPoint x="490" y="590" as="sourcePoint" />
            <mxPoint x="540" y="540" as="targetPoint" />
          </mxGeometry>
        </mxCell>
        <mxCell id="k65Ih3bsVJZd8CG2GF2q-87" value="" style="endArrow=none;html=1;rounded=0;exitX=1;exitY=0.5;exitDx=0;exitDy=0;entryX=0;entryY=0.5;entryDx=0;entryDy=0;" edge="1" parent="1" source="k65Ih3bsVJZd8CG2GF2q-85" target="k65Ih3bsVJZd8CG2GF2q-15">
          <mxGeometry width="50" height="50" relative="1" as="geometry">
            <mxPoint x="490" y="590" as="sourcePoint" />
            <mxPoint x="540" y="540" as="targetPoint" />
          </mxGeometry>
        </mxCell>
        <mxCell id="k65Ih3bsVJZd8CG2GF2q-88" value="Autorizado a levar/buscar" style="rounded=0;whiteSpace=wrap;html=1;" vertex="1" parent="1">
          <mxGeometry x="770" y="620" width="80" height="40" as="geometry" />
        </mxCell>
        <mxCell id="k65Ih3bsVJZd8CG2GF2q-89" value="IS A" style="triangle;whiteSpace=wrap;html=1;" vertex="1" parent="1">
          <mxGeometry x="700" y="605" width="50" height="70" as="geometry" />
        </mxCell>
        <mxCell id="k65Ih3bsVJZd8CG2GF2q-90" value="" style="endArrow=none;html=1;rounded=0;exitX=1;exitY=0.5;exitDx=0;exitDy=0;entryX=0;entryY=0.5;entryDx=0;entryDy=0;" edge="1" parent="1" source="k65Ih3bsVJZd8CG2GF2q-15" target="k65Ih3bsVJZd8CG2GF2q-89">
          <mxGeometry width="50" height="50" relative="1" as="geometry">
            <mxPoint x="640" y="580" as="sourcePoint" />
            <mxPoint x="690" y="530" as="targetPoint" />
          </mxGeometry>
        </mxCell>
        <mxCell id="k65Ih3bsVJZd8CG2GF2q-91" value="" style="endArrow=none;html=1;rounded=0;exitX=1;exitY=0.5;exitDx=0;exitDy=0;entryX=0;entryY=0.5;entryDx=0;entryDy=0;" edge="1" parent="1" source="k65Ih3bsVJZd8CG2GF2q-89" target="k65Ih3bsVJZd8CG2GF2q-88">
          <mxGeometry width="50" height="50" relative="1" as="geometry">
            <mxPoint x="640" y="580" as="sourcePoint" />
            <mxPoint x="690" y="530" as="targetPoint" />
          </mxGeometry>
        </mxCell>
        <mxCell id="k65Ih3bsVJZd8CG2GF2q-92" value="IS A" style="triangle;whiteSpace=wrap;html=1;" vertex="1" parent="1">
          <mxGeometry x="820" y="450" width="50" height="70" as="geometry" />
        </mxCell>
        <mxCell id="k65Ih3bsVJZd8CG2GF2q-93" value="Pessoa" style="rounded=0;whiteSpace=wrap;html=1;" vertex="1" parent="1">
          <mxGeometry x="900" y="465" width="80" height="40" as="geometry" />
        </mxCell>
        <mxCell id="k65Ih3bsVJZd8CG2GF2q-95" value="" style="endArrow=none;html=1;rounded=0;entryX=0;entryY=0.5;entryDx=0;entryDy=0;exitX=1;exitY=0.5;exitDx=0;exitDy=0;" edge="1" parent="1" source="k65Ih3bsVJZd8CG2GF2q-92" target="k65Ih3bsVJZd8CG2GF2q-93">
          <mxGeometry width="50" height="50" relative="1" as="geometry">
            <mxPoint x="740" y="560" as="sourcePoint" />
            <mxPoint x="790" y="510" as="targetPoint" />
          </mxGeometry>
        </mxCell>
        <mxCell id="k65Ih3bsVJZd8CG2GF2q-96" value="" style="endArrow=none;html=1;rounded=0;entryX=0.5;entryY=1;entryDx=0;entryDy=0;exitX=0.014;exitY=0.277;exitDx=0;exitDy=0;exitPerimeter=0;" edge="1" parent="1" source="k65Ih3bsVJZd8CG2GF2q-92" target="k65Ih3bsVJZd8CG2GF2q-1">
          <mxGeometry width="50" height="50" relative="1" as="geometry">
            <mxPoint x="680" y="580" as="sourcePoint" />
            <mxPoint x="730" y="530" as="targetPoint" />
            <Array as="points">
              <mxPoint x="630" y="470" />
            </Array>
          </mxGeometry>
        </mxCell>
        <mxCell id="k65Ih3bsVJZd8CG2GF2q-97" value="" style="endArrow=none;html=1;rounded=0;exitX=0.5;exitY=0;exitDx=0;exitDy=0;entryX=0;entryY=0.5;entryDx=0;entryDy=0;" edge="1" parent="1" source="k65Ih3bsVJZd8CG2GF2q-15" target="k65Ih3bsVJZd8CG2GF2q-92">
          <mxGeometry width="50" height="50" relative="1" as="geometry">
            <mxPoint x="760" y="540" as="sourcePoint" />
            <mxPoint x="810" y="490" as="targetPoint" />
            <Array as="points">
              <mxPoint x="630" y="485" />
            </Array>
          </mxGeometry>
        </mxCell>
        <mxCell id="k65Ih3bsVJZd8CG2GF2q-98" value="" style="endArrow=none;html=1;rounded=0;exitX=0.115;exitY=-0.032;exitDx=0;exitDy=0;exitPerimeter=0;entryX=0;entryY=0.75;entryDx=0;entryDy=0;" edge="1" parent="1" source="k65Ih3bsVJZd8CG2GF2q-88" target="k65Ih3bsVJZd8CG2GF2q-92">
          <mxGeometry width="50" height="50" relative="1" as="geometry">
            <mxPoint x="760" y="540" as="sourcePoint" />
            <mxPoint x="800" y="520" as="targetPoint" />
            <Array as="points">
              <mxPoint x="779" y="503" />
            </Array>
          </mxGeometry>
        </mxCell>
        <mxCell id="k65Ih3bsVJZd8CG2GF2q-99" value="1" style="text;html=1;align=center;verticalAlign=middle;whiteSpace=wrap;rounded=0;" vertex="1" parent="1">
          <mxGeometry x="550" y="645" width="60" height="30" as="geometry" />
        </mxCell>
        <mxCell id="k65Ih3bsVJZd8CG2GF2q-100" value="1" style="text;html=1;align=center;verticalAlign=middle;whiteSpace=wrap;rounded=0;" vertex="1" parent="1">
          <mxGeometry x="440" y="645" width="60" height="30" as="geometry" />
        </mxCell>
        <mxCell id="k65Ih3bsVJZd8CG2GF2q-101" value="N" style="text;html=1;align=center;verticalAlign=middle;whiteSpace=wrap;rounded=0;" vertex="1" parent="1">
          <mxGeometry x="370" y="550" width="60" height="30" as="geometry" />
        </mxCell>
        <mxCell id="k65Ih3bsVJZd8CG2GF2q-102" value="&lt;u&gt;num_CC&lt;/u&gt;" style="ellipse;whiteSpace=wrap;html=1;" vertex="1" parent="1">
          <mxGeometry x="1010" y="330" width="70" height="40" as="geometry" />
        </mxCell>
        <mxCell id="k65Ih3bsVJZd8CG2GF2q-103" value="nome" style="ellipse;whiteSpace=wrap;html=1;" vertex="1" parent="1">
          <mxGeometry x="1010" y="375" width="70" height="40" as="geometry" />
        </mxCell>
        <mxCell id="k65Ih3bsVJZd8CG2GF2q-104" value="morada" style="ellipse;whiteSpace=wrap;html=1;" vertex="1" parent="1">
          <mxGeometry x="1010" y="420" width="70" height="40" as="geometry" />
        </mxCell>
        <mxCell id="k65Ih3bsVJZd8CG2GF2q-105" value="contato_tel" style="ellipse;whiteSpace=wrap;html=1;" vertex="1" parent="1">
          <mxGeometry x="1010" y="465" width="70" height="40" as="geometry" />
        </mxCell>
        <mxCell id="k65Ih3bsVJZd8CG2GF2q-106" value="data_nasci" style="ellipse;whiteSpace=wrap;html=1;" vertex="1" parent="1">
          <mxGeometry x="1010" y="560" width="70" height="40" as="geometry" />
        </mxCell>
        <mxCell id="k65Ih3bsVJZd8CG2GF2q-107" value="morada" style="ellipse;whiteSpace=wrap;html=1;" vertex="1" parent="1">
          <mxGeometry x="1010" y="510" width="70" height="40" as="geometry" />
        </mxCell>
        <mxCell id="k65Ih3bsVJZd8CG2GF2q-108" value="email" style="ellipse;whiteSpace=wrap;html=1;" vertex="1" parent="1">
          <mxGeometry x="1010" y="605" width="70" height="40" as="geometry" />
        </mxCell>
        <mxCell id="k65Ih3bsVJZd8CG2GF2q-109" value="" style="endArrow=none;html=1;rounded=0;entryX=0;entryY=0.5;entryDx=0;entryDy=0;exitX=0.314;exitY=0.004;exitDx=0;exitDy=0;exitPerimeter=0;" edge="1" parent="1" source="k65Ih3bsVJZd8CG2GF2q-93" target="k65Ih3bsVJZd8CG2GF2q-102">
          <mxGeometry width="50" height="50" relative="1" as="geometry">
            <mxPoint x="950" y="410" as="sourcePoint" />
            <mxPoint x="1000" y="360" as="targetPoint" />
          </mxGeometry>
        </mxCell>
        <mxCell id="k65Ih3bsVJZd8CG2GF2q-110" value="" style="endArrow=none;html=1;rounded=0;entryX=0;entryY=0.5;entryDx=0;entryDy=0;exitX=0.5;exitY=0;exitDx=0;exitDy=0;" edge="1" parent="1" source="k65Ih3bsVJZd8CG2GF2q-93" target="k65Ih3bsVJZd8CG2GF2q-103">
          <mxGeometry width="50" height="50" relative="1" as="geometry">
            <mxPoint x="950" y="465" as="sourcePoint" />
            <mxPoint x="1035" y="350" as="targetPoint" />
          </mxGeometry>
        </mxCell>
        <mxCell id="k65Ih3bsVJZd8CG2GF2q-111" value="" style="endArrow=none;html=1;rounded=0;entryX=0.008;entryY=0.811;entryDx=0;entryDy=0;exitX=1;exitY=0.25;exitDx=0;exitDy=0;entryPerimeter=0;" edge="1" parent="1" source="k65Ih3bsVJZd8CG2GF2q-93" target="k65Ih3bsVJZd8CG2GF2q-104">
          <mxGeometry width="50" height="50" relative="1" as="geometry">
            <mxPoint x="950" y="475" as="sourcePoint" />
            <mxPoint x="1020" y="410" as="targetPoint" />
          </mxGeometry>
        </mxCell>
        <mxCell id="k65Ih3bsVJZd8CG2GF2q-112" value="" style="endArrow=none;html=1;rounded=0;entryX=0;entryY=0.5;entryDx=0;entryDy=0;exitX=1;exitY=0.5;exitDx=0;exitDy=0;" edge="1" parent="1" source="k65Ih3bsVJZd8CG2GF2q-93" target="k65Ih3bsVJZd8CG2GF2q-105">
          <mxGeometry width="50" height="50" relative="1" as="geometry">
            <mxPoint x="990" y="485" as="sourcePoint" />
            <mxPoint x="1020" y="460" as="targetPoint" />
          </mxGeometry>
        </mxCell>
        <mxCell id="k65Ih3bsVJZd8CG2GF2q-113" value="" style="endArrow=none;html=1;rounded=0;entryX=0.026;entryY=0.33;entryDx=0;entryDy=0;exitX=1;exitY=0.75;exitDx=0;exitDy=0;entryPerimeter=0;" edge="1" parent="1" source="k65Ih3bsVJZd8CG2GF2q-93" target="k65Ih3bsVJZd8CG2GF2q-107">
          <mxGeometry width="50" height="50" relative="1" as="geometry">
            <mxPoint x="990" y="495" as="sourcePoint" />
            <mxPoint x="1020" y="495" as="targetPoint" />
          </mxGeometry>
        </mxCell>
        <mxCell id="k65Ih3bsVJZd8CG2GF2q-114" value="" style="endArrow=none;html=1;rounded=0;entryX=0;entryY=0;entryDx=0;entryDy=0;exitX=0.81;exitY=0.982;exitDx=0;exitDy=0;exitPerimeter=0;" edge="1" parent="1" source="k65Ih3bsVJZd8CG2GF2q-93" target="k65Ih3bsVJZd8CG2GF2q-106">
          <mxGeometry width="50" height="50" relative="1" as="geometry">
            <mxPoint x="990" y="505" as="sourcePoint" />
            <mxPoint x="1022" y="533" as="targetPoint" />
          </mxGeometry>
        </mxCell>
        <mxCell id="k65Ih3bsVJZd8CG2GF2q-115" value="" style="endArrow=none;html=1;rounded=0;exitX=0.75;exitY=1;exitDx=0;exitDy=0;entryX=0;entryY=0;entryDx=0;entryDy=0;" edge="1" parent="1" source="k65Ih3bsVJZd8CG2GF2q-93" target="k65Ih3bsVJZd8CG2GF2q-108">
          <mxGeometry width="50" height="50" relative="1" as="geometry">
            <mxPoint x="955" y="518" as="sourcePoint" />
            <mxPoint x="1000" y="620" as="targetPoint" />
          </mxGeometry>
        </mxCell>
        <mxCell id="k65Ih3bsVJZd8CG2GF2q-116" value="&lt;u&gt;número funcionário&lt;/u&gt;" style="ellipse;whiteSpace=wrap;html=1;" vertex="1" parent="1">
          <mxGeometry x="595" y="290" width="70" height="40" as="geometry" />
        </mxCell>
        <mxCell id="k65Ih3bsVJZd8CG2GF2q-117" value="" style="endArrow=none;html=1;rounded=0;entryX=0.5;entryY=1;entryDx=0;entryDy=0;exitX=0.5;exitY=0;exitDx=0;exitDy=0;" edge="1" parent="1" source="k65Ih3bsVJZd8CG2GF2q-1" target="k65Ih3bsVJZd8CG2GF2q-116">
          <mxGeometry width="50" height="50" relative="1" as="geometry">
            <mxPoint x="680" y="480" as="sourcePoint" />
            <mxPoint x="730" y="430" as="targetPoint" />
          </mxGeometry>
        </mxCell>
        <mxCell id="k65Ih3bsVJZd8CG2GF2q-118" value="relação c/ &lt;br&gt;o aluno" style="ellipse;whiteSpace=wrap;html=1;" vertex="1" parent="1">
          <mxGeometry x="595" y="710" width="70" height="40" as="geometry" />
        </mxCell>
        <mxCell id="k65Ih3bsVJZd8CG2GF2q-119" value="relação c/ &lt;br&gt;o aluno" style="ellipse;whiteSpace=wrap;html=1;" vertex="1" parent="1">
          <mxGeometry x="775" y="710" width="70" height="40" as="geometry" />
        </mxCell>
        <mxCell id="k65Ih3bsVJZd8CG2GF2q-123" value="" style="endArrow=none;html=1;rounded=0;entryX=0.5;entryY=1;entryDx=0;entryDy=0;" edge="1" parent="1" source="k65Ih3bsVJZd8CG2GF2q-118" target="k65Ih3bsVJZd8CG2GF2q-15">
          <mxGeometry width="50" height="50" relative="1" as="geometry">
            <mxPoint x="650" y="750" as="sourcePoint" />
            <mxPoint x="700" y="700" as="targetPoint" />
          </mxGeometry>
        </mxCell>
        <mxCell id="k65Ih3bsVJZd8CG2GF2q-124" value="" style="endArrow=none;html=1;rounded=0;entryX=0.5;entryY=1;entryDx=0;entryDy=0;" edge="1" parent="1">
          <mxGeometry width="50" height="50" relative="1" as="geometry">
            <mxPoint x="809.6800000000001" y="710" as="sourcePoint" />
            <mxPoint x="809.6800000000001" y="660" as="targetPoint" />
          </mxGeometry>
        </mxCell>
        <mxCell id="k65Ih3bsVJZd8CG2GF2q-125" value="nome" style="ellipse;whiteSpace=wrap;html=1;" vertex="1" parent="1">
          <mxGeometry x="300" y="690" width="70" height="40" as="geometry" />
        </mxCell>
        <mxCell id="k65Ih3bsVJZd8CG2GF2q-126" value="&lt;u&gt;num_CC&lt;/u&gt;" style="ellipse;whiteSpace=wrap;html=1;" vertex="1" parent="1">
          <mxGeometry x="335" y="730" width="70" height="40" as="geometry" />
        </mxCell>
        <mxCell id="k65Ih3bsVJZd8CG2GF2q-127" value="data_nasci" style="ellipse;whiteSpace=wrap;html=1;" vertex="1" parent="1">
          <mxGeometry x="410" y="730" width="70" height="40" as="geometry" />
        </mxCell>
        <mxCell id="k65Ih3bsVJZd8CG2GF2q-128" value="morada" style="ellipse;whiteSpace=wrap;html=1;" vertex="1" parent="1">
          <mxGeometry x="450" y="690" width="70" height="40" as="geometry" />
        </mxCell>
        <mxCell id="k65Ih3bsVJZd8CG2GF2q-129" value="" style="endArrow=none;html=1;rounded=0;entryX=0.25;entryY=1;entryDx=0;entryDy=0;exitX=0.5;exitY=0;exitDx=0;exitDy=0;" edge="1" parent="1" source="k65Ih3bsVJZd8CG2GF2q-125" target="k65Ih3bsVJZd8CG2GF2q-71">
          <mxGeometry width="50" height="50" relative="1" as="geometry">
            <mxPoint x="380" y="730" as="sourcePoint" />
            <mxPoint x="430" y="680" as="targetPoint" />
          </mxGeometry>
        </mxCell>
        <mxCell id="k65Ih3bsVJZd8CG2GF2q-130" value="" style="endArrow=none;html=1;rounded=0;exitX=0.5;exitY=0;exitDx=0;exitDy=0;entryX=0.377;entryY=0.978;entryDx=0;entryDy=0;entryPerimeter=0;" edge="1" parent="1" source="k65Ih3bsVJZd8CG2GF2q-126" target="k65Ih3bsVJZd8CG2GF2q-71">
          <mxGeometry width="50" height="50" relative="1" as="geometry">
            <mxPoint x="370" y="706" as="sourcePoint" />
            <mxPoint x="400" y="670" as="targetPoint" />
          </mxGeometry>
        </mxCell>
        <mxCell id="k65Ih3bsVJZd8CG2GF2q-131" value="" style="endArrow=none;html=1;rounded=0;exitX=0.5;exitY=0;exitDx=0;exitDy=0;entryX=0.593;entryY=1.047;entryDx=0;entryDy=0;entryPerimeter=0;" edge="1" parent="1" source="k65Ih3bsVJZd8CG2GF2q-127" target="k65Ih3bsVJZd8CG2GF2q-71">
          <mxGeometry width="50" height="50" relative="1" as="geometry">
            <mxPoint x="380" y="740" as="sourcePoint" />
            <mxPoint x="410" y="669" as="targetPoint" />
          </mxGeometry>
        </mxCell>
        <mxCell id="k65Ih3bsVJZd8CG2GF2q-132" value="" style="endArrow=none;html=1;rounded=0;exitX=0.5;exitY=0;exitDx=0;exitDy=0;entryX=0.75;entryY=1;entryDx=0;entryDy=0;" edge="1" parent="1" source="k65Ih3bsVJZd8CG2GF2q-128" target="k65Ih3bsVJZd8CG2GF2q-71">
          <mxGeometry width="50" height="50" relative="1" as="geometry">
            <mxPoint x="455" y="740" as="sourcePoint" />
            <mxPoint x="427" y="672" as="targetPoint" />
          </mxGeometry>
        </mxCell>
        <mxCell id="k65Ih3bsVJZd8CG2GF2q-133" value="designação" style="ellipse;whiteSpace=wrap;html=1;" vertex="1" parent="1">
          <mxGeometry x="67.5" y="710" width="70" height="40" as="geometry" />
        </mxCell>
        <mxCell id="k65Ih3bsVJZd8CG2GF2q-134" value="&lt;u&gt;identificador&lt;/u&gt;" style="ellipse;whiteSpace=wrap;html=1;" vertex="1" parent="1">
          <mxGeometry x="30" y="660" width="70" height="40" as="geometry" />
        </mxCell>
        <mxCell id="k65Ih3bsVJZd8CG2GF2q-135" value="custo" style="ellipse;whiteSpace=wrap;html=1;" vertex="1" parent="1">
          <mxGeometry x="150" y="720" width="70" height="40" as="geometry" />
        </mxCell>
        <mxCell id="k65Ih3bsVJZd8CG2GF2q-136" value="" style="endArrow=none;html=1;rounded=0;entryX=0.25;entryY=1;entryDx=0;entryDy=0;exitX=1;exitY=0.5;exitDx=0;exitDy=0;" edge="1" parent="1" source="k65Ih3bsVJZd8CG2GF2q-134" target="k65Ih3bsVJZd8CG2GF2q-10">
          <mxGeometry width="50" height="50" relative="1" as="geometry">
            <mxPoint x="110" y="740" as="sourcePoint" />
            <mxPoint x="160" y="690" as="targetPoint" />
          </mxGeometry>
        </mxCell>
        <mxCell id="k65Ih3bsVJZd8CG2GF2q-137" value="" style="endArrow=none;html=1;rounded=0;entryX=0.5;entryY=1;entryDx=0;entryDy=0;exitX=0.5;exitY=0;exitDx=0;exitDy=0;" edge="1" parent="1" source="k65Ih3bsVJZd8CG2GF2q-133" target="k65Ih3bsVJZd8CG2GF2q-10">
          <mxGeometry width="50" height="50" relative="1" as="geometry">
            <mxPoint x="110" y="690" as="sourcePoint" />
            <mxPoint x="168" y="670" as="targetPoint" />
          </mxGeometry>
        </mxCell>
        <mxCell id="k65Ih3bsVJZd8CG2GF2q-138" value="" style="endArrow=none;html=1;rounded=0;entryX=0.75;entryY=1;entryDx=0;entryDy=0;exitX=0.5;exitY=0;exitDx=0;exitDy=0;" edge="1" parent="1" source="k65Ih3bsVJZd8CG2GF2q-135" target="k65Ih3bsVJZd8CG2GF2q-10">
          <mxGeometry width="50" height="50" relative="1" as="geometry">
            <mxPoint x="113" y="720" as="sourcePoint" />
            <mxPoint x="188" y="670" as="targetPoint" />
          </mxGeometry>
        </mxCell>
        <mxCell id="k65Ih3bsVJZd8CG2GF2q-139" value="&lt;u&gt;identificador&lt;/u&gt;" style="ellipse;whiteSpace=wrap;html=1;" vertex="1" parent="1">
          <mxGeometry x="60" y="415" width="70" height="40" as="geometry" />
        </mxCell>
        <mxCell id="k65Ih3bsVJZd8CG2GF2q-140" value="ano letivo" style="ellipse;whiteSpace=wrap;html=1;" vertex="1" parent="1">
          <mxGeometry x="50" y="360" width="70" height="40" as="geometry" />
        </mxCell>
        <mxCell id="k65Ih3bsVJZd8CG2GF2q-141" value="designação" style="ellipse;whiteSpace=wrap;html=1;" vertex="1" parent="1">
          <mxGeometry x="100" y="310" width="70" height="40" as="geometry" />
        </mxCell>
        <mxCell id="k65Ih3bsVJZd8CG2GF2q-142" value="num_máx de alunos" style="ellipse;whiteSpace=wrap;html=1;" vertex="1" parent="1">
          <mxGeometry x="180" y="310" width="70" height="40" as="geometry" />
        </mxCell>
        <mxCell id="k65Ih3bsVJZd8CG2GF2q-144" value="" style="endArrow=none;html=1;rounded=0;entryX=0.5;entryY=1;entryDx=0;entryDy=0;exitX=0.75;exitY=0;exitDx=0;exitDy=0;" edge="1" parent="1" source="k65Ih3bsVJZd8CG2GF2q-2" target="k65Ih3bsVJZd8CG2GF2q-142">
          <mxGeometry width="50" height="50" relative="1" as="geometry">
            <mxPoint x="200" y="440" as="sourcePoint" />
            <mxPoint x="250" y="390" as="targetPoint" />
          </mxGeometry>
        </mxCell>
        <mxCell id="k65Ih3bsVJZd8CG2GF2q-145" value="" style="endArrow=none;html=1;rounded=0;entryX=1;entryY=1;entryDx=0;entryDy=0;exitX=0.5;exitY=0;exitDx=0;exitDy=0;" edge="1" parent="1" source="k65Ih3bsVJZd8CG2GF2q-2" target="k65Ih3bsVJZd8CG2GF2q-141">
          <mxGeometry width="50" height="50" relative="1" as="geometry">
            <mxPoint x="208" y="390" as="sourcePoint" />
            <mxPoint x="225" y="360" as="targetPoint" />
          </mxGeometry>
        </mxCell>
        <mxCell id="k65Ih3bsVJZd8CG2GF2q-146" value="" style="endArrow=none;html=1;rounded=0;entryX=1;entryY=0.5;entryDx=0;entryDy=0;exitX=0;exitY=0.25;exitDx=0;exitDy=0;" edge="1" parent="1" source="k65Ih3bsVJZd8CG2GF2q-2" target="k65Ih3bsVJZd8CG2GF2q-140">
          <mxGeometry width="50" height="50" relative="1" as="geometry">
            <mxPoint x="188" y="390" as="sourcePoint" />
            <mxPoint x="170" y="354" as="targetPoint" />
          </mxGeometry>
        </mxCell>
        <mxCell id="k65Ih3bsVJZd8CG2GF2q-147" value="" style="endArrow=none;html=1;rounded=0;entryX=1;entryY=0;entryDx=0;entryDy=0;exitX=0;exitY=0.75;exitDx=0;exitDy=0;" edge="1" parent="1" source="k65Ih3bsVJZd8CG2GF2q-2" target="k65Ih3bsVJZd8CG2GF2q-139">
          <mxGeometry width="50" height="50" relative="1" as="geometry">
            <mxPoint x="148" y="400" as="sourcePoint" />
            <mxPoint x="130" y="390" as="targetPoint" />
          </mxGeometry>
        </mxCell>
        <mxCell id="k65Ih3bsVJZd8CG2GF2q-148" value="" style="endArrow=none;html=1;rounded=0;exitX=0.708;exitY=0.798;exitDx=0;exitDy=0;entryX=0.84;entryY=-0.01;entryDx=0;entryDy=0;entryPerimeter=0;exitPerimeter=0;" edge="1" parent="1" source="k65Ih3bsVJZd8CG2GF2q-79">
          <mxGeometry width="50" height="50" relative="1" as="geometry">
            <mxPoint x="327" y="525" as="sourcePoint" />
            <mxPoint x="430" y="620" as="targetPoint" />
          </mxGeometry>
        </mxCell>
        <mxCell id="k65Ih3bsVJZd8CG2GF2q-149" value="" style="endArrow=none;html=1;rounded=0;exitX=0.834;exitY=1.004;exitDx=0;exitDy=0;exitPerimeter=0;entryX=0.288;entryY=0.216;entryDx=0;entryDy=0;entryPerimeter=0;" edge="1" parent="1" source="k65Ih3bsVJZd8CG2GF2q-2" target="k65Ih3bsVJZd8CG2GF2q-79">
          <mxGeometry width="50" height="50" relative="1" as="geometry">
            <mxPoint x="210" y="425" as="sourcePoint" />
            <mxPoint x="296" y="494" as="targetPoint" />
          </mxGeometry>
        </mxCell>
        <mxCell id="k65Ih3bsVJZd8CG2GF2q-150" value="" style="endArrow=none;html=1;rounded=0;exitX=1;exitY=0.5;exitDx=0;exitDy=0;entryX=0.193;entryY=0.684;entryDx=0;entryDy=0;entryPerimeter=0;" edge="1" parent="1" target="k65Ih3bsVJZd8CG2GF2q-3">
          <mxGeometry width="50" height="50" relative="1" as="geometry">
            <mxPoint x="217.5" y="410" as="sourcePoint" />
            <mxPoint x="439.5" y="410" as="targetPoint" />
          </mxGeometry>
        </mxCell>
        <mxCell id="k65Ih3bsVJZd8CG2GF2q-151" value="" style="endArrow=none;html=1;rounded=0;exitX=1;exitY=0.5;exitDx=0;exitDy=0;entryX=0.083;entryY=0.59;entryDx=0;entryDy=0;entryPerimeter=0;" edge="1" parent="1" target="k65Ih3bsVJZd8CG2GF2q-85">
          <mxGeometry width="50" height="50" relative="1" as="geometry">
            <mxPoint x="450" y="645" as="sourcePoint" />
            <mxPoint x="480" y="645" as="targetPoint" />
          </mxGeometry>
        </mxCell>
        <mxCell id="k65Ih3bsVJZd8CG2GF2q-152" value="" style="endArrow=none;html=1;rounded=0;exitX=0.917;exitY=0.582;exitDx=0;exitDy=0;entryX=0.67;entryY=0.004;entryDx=0;entryDy=0;entryPerimeter=0;exitPerimeter=0;" edge="1" parent="1" source="k65Ih3bsVJZd8CG2GF2q-85" target="k65Ih3bsVJZd8CG2GF2q-99">
          <mxGeometry width="50" height="50" relative="1" as="geometry">
            <mxPoint x="560" y="645" as="sourcePoint" />
            <mxPoint x="585" y="645" as="targetPoint" />
            <Array as="points" />
          </mxGeometry>
        </mxCell>
        <mxCell id="k65Ih3bsVJZd8CG2GF2q-153" value="escolaridade" style="ellipse;whiteSpace=wrap;html=1;" vertex="1" parent="1">
          <mxGeometry x="257.5" y="310" width="77.5" height="40" as="geometry" />
        </mxCell>
        <mxCell id="k65Ih3bsVJZd8CG2GF2q-154" value="" style="endArrow=none;html=1;rounded=0;entryX=0.5;entryY=1;entryDx=0;entryDy=0;exitX=1;exitY=0.25;exitDx=0;exitDy=0;" edge="1" parent="1" source="k65Ih3bsVJZd8CG2GF2q-2" target="k65Ih3bsVJZd8CG2GF2q-153">
          <mxGeometry width="50" height="50" relative="1" as="geometry">
            <mxPoint x="217.5" y="400" as="sourcePoint" />
            <mxPoint x="267.5" y="350" as="targetPoint" />
          </mxGeometry>
        </mxCell>
      </root>
    </mxGraphModel>
  </diagram>
</mxfile>
